Coordinates
version=1
nRows=9
nColumns=24
inDegrees=yes

Units are S.I. units (second, meters, Newtons, ...)
Angles are in degrees.

endheader
time	pelvis_tilt	pelvis_list	pelvis_rotation	pelvis_tx	pelvis_ty	pelvis_tz	hip_flexion_r	hip_adduction_r	hip_rotation_r	knee_angle_r	ankle_angle_r	subtalar_angle_r	mtp_angle_r	hip_flexion_l	hip_adduction_l	hip_rotation_l	knee_angle_l	ankle_angle_l	subtalar_angle_l	mtp_angle_l	lumbar_extension	lumbar_bending	lumbar_rotation
      0.84133333	     -0.78397674	     -7.86024155	      0.45813401	     -0.39190135	      1.00255247	      0.31895527	     10.19846887	     11.34110822	     -0.69363869	    -15.86354195	      6.34020067	    -16.12737648	      1.89576010	     13.31897746	     -8.81836983	     -0.55097548	    -70.90440002	     -9.16643190	    -11.28609093	      7.06157314	    -10.51260320	     17.27578966	     -2.36185868
      0.84550000	     -0.66142757	     -7.69353018	      0.48904611	     -0.38696497	      1.00376202	      0.31945249	      9.48403349	     11.22426140	     -0.51373521	    -15.31226249	      6.26933431	    -16.26988500	      1.90597273	     13.82030693	     -8.67589564	     -0.63029571	    -70.87389067	     -8.48043669	    -11.33247942	      6.89476194	    -10.72862043	     16.96337126	     -1.97260462
      0.84966667	     -0.62275760	     -7.49951938	      0.50725516	     -0.38205160	      1.00479738	      0.31990986	      8.89731255	     11.06394102	     -0.40310686	    -14.84323853	      6.22760917	    -16.29942883	      1.91311775	     14.40590249	     -8.48678211	     -0.70983834	    -70.79629957	     -7.83365653	    -11.51068947	      6.79249199	    -10.81362643	     16.65950489	     -1.80316497
      0.85383333	     -0.52932486	     -7.34100905	      0.50861294	     -0.37708523	      1.00590493	      0.32042425	      8.19984342	     10.95561763	     -0.19751590	    -14.27102029	      6.18795908	    -16.43403522	      1.93315849	     14.90849205	     -8.35698546	     -0.82339081	    -70.65312315	     -7.20015198	    -11.60655090	      6.51933628	    -10.96154125	     16.38421621	     -1.43597867
      0.85800000	     -0.48595487	     -7.13097593	      0.52460757	     -0.37213194	      1.00694039	      0.32087999	      7.57076407	     10.78013874	     -0.05060040	    -13.72424294	      6.09226796	    -16.55268801	      1.98941983	     15.45522278	     -8.14169817	     -0.90064942	    -70.44254220	     -6.61716027	    -11.70464502	      5.80130696	    -11.04100961	     16.04298294	     -1.14175175
      0.86216667	     -0.39496290	     -6.90353959	      0.52338958	     -0.36719769	      1.00798384	      0.32132475	      6.91857742	     10.57861797	      0.05780895	    -13.25215307	      6.18234609	    -16.48753697	      2.00074174	     15.92811944	     -7.91192225	     -1.00834172	    -70.17495565	     -5.96364741	    -11.70665724	      5.69389747	    -11.17414152	     15.72380458	     -1.02053851
      0.86633333	     -0.31092994	     -6.67770536	      0.51770214	     -0.36224599	      1.00901987	      0.32178189	      6.25378158	     10.38071052	      0.18886425	    -12.73240866	      6.17221673	    -16.50038746	      2.00803552	     16.39126145	     -7.68230825	     -1.11700858	    -69.84238909	     -5.36248947	    -11.73184104	      5.57004744	    -11.30862206	     15.37804174	     -0.76995601
      0.87050000	     -0.21335687	     -6.45545718	      0.50119186	     -0.35730650	      1.01001959	      0.32223806	      5.57749931	     10.18401550	      0.31861575	    -12.21752130	      6.14526942	    -16.49836711	      2.01611618	     16.82650887	     -7.45978321	     -1.24139932	    -69.46380300	     -4.75390972	    -11.75123335	      5.41512905	    -11.46731627	     15.04798849	     -0.51682675
      0.87466667	     -0.15626083	     -6.21136707	      0.49445480	     -0.35236413	      1.01093284	      0.32266952	      4.95340417	      9.95861949	      0.41884863	    -11.72309115	      6.17495601	    -16.48225388	      2.02114188	     17.29379918	     -7.20002798	     -1.34088889	    -69.02572488	     -4.17803286	    -11.69144440	      5.30164893	    -11.55751853	     14.68527215	     -0.31450588
